<svg width="24" height="24" viewBox="0 0 24 24" fill="none" xmlns="http://www.w3.org/2000/svg">
<g id="person">
<mask id="mask0_19_227" style="mask-type:alpha" maskUnits="userSpaceOnUse" x="0" y="0" width="24" height="24">
<rect id="Bounding box" width="24" height="24" fill="#D9D9D9"/>
</mask>
<g mask="url(#mask0_19_227)">
<path id="person_2" d="M12 11.7598C10.7587 11.7598 9.70159 11.3234 8.82876 10.4505C7.95594 9.57771 7.51953 8.52063 7.51953 7.27931C7.51953 6.03801 7.95594 4.98331 8.82876 4.11519C9.70159 3.24706 10.7587 2.81299 12 2.81299C13.2413 2.81299 14.2984 3.24706 15.1712 4.11519C16.044 4.98331 16.4804 6.03801 16.4804 7.27931C16.4804 8.52063 16.044 9.57771 15.1712 10.4505C14.2984 11.3234 13.2413 11.7598 12 11.7598ZM3.51953 20.7207V17.412C3.51953 16.7577 3.68983 16.1563 4.03043 15.6079C4.37105 15.0594 4.82357 14.6408 5.38801 14.3522C6.44961 13.8261 7.53239 13.4292 8.63636 13.1614C9.74031 12.8937 10.8615 12.7598 12 12.7598C13.1565 12.7598 14.2869 12.8913 15.3913 13.1543C16.4956 13.4174 17.5692 13.812 18.612 14.338C19.1764 14.6253 19.6289 15.0419 19.9695 15.5878C20.3101 16.1336 20.4804 16.7414 20.4804 17.4112V20.7207H3.51953ZM6.16956 18.0707H17.8304V17.4826C17.8304 17.3085 17.7846 17.1501 17.6929 17.0076C17.6012 16.865 17.4804 16.7542 17.3304 16.675C16.4869 16.2627 15.621 15.9488 14.7326 15.7332C13.8442 15.5176 12.9333 15.4098 12 15.4098C11.0855 15.4098 10.1746 15.5176 9.26738 15.7332C8.36013 15.9488 7.49419 16.2627 6.66956 16.675C6.51956 16.7542 6.39872 16.865 6.30706 17.0076C6.21539 17.1501 6.16956 17.3085 6.16956 17.4826V18.0707ZM11.9995 9.10974C12.5027 9.10974 12.9337 8.93056 13.2924 8.57221C13.6511 8.21385 13.8304 7.78305 13.8304 7.27981C13.8304 6.7766 13.6512 6.348 13.2929 5.99401C12.9345 5.64003 12.5037 5.46304 12.0005 5.46304C11.4972 5.46304 11.0663 5.64088 10.7076 5.99656C10.3489 6.35226 10.1696 6.77985 10.1696 7.27931C10.1696 7.78268 10.3487 8.2136 10.7071 8.57206C11.0655 8.93051 11.4962 9.10974 11.9995 9.10974Z" fill="#FAF6F1"/>
</g>
</g>
</svg>
