<svg width="24" height="24" viewBox="0 0 24 24" fill="none" xmlns="http://www.w3.org/2000/svg">
<g id="search">
<mask id="mask0_19_221" style="mask-type:alpha" maskUnits="userSpaceOnUse" x="0" y="0" width="24" height="24">
<rect id="Bounding box" width="24" height="24" fill="#D9D9D9"/>
</mask>
<g mask="url(#mask0_19_221)">
<path id="search_2" d="M19.5718 21.537L13.1729 15.1381C12.6823 15.5004 12.1144 15.7888 11.4691 16.0033C10.8238 16.2178 10.1298 16.325 9.38704 16.325C7.48559 16.325 5.87272 15.6629 4.54844 14.3386C3.22415 13.0143 2.56201 11.4015 2.56201 9.50001C2.56201 7.59856 3.22415 5.9857 4.54844 4.66141C5.87272 3.33713 7.48559 2.67499 9.38704 2.67499C11.2885 2.67499 12.9014 3.33713 14.2256 4.66141C15.5499 5.9857 16.2121 7.59856 16.2121 9.50001C16.2121 10.2522 16.1048 10.9462 15.8903 11.5821C15.6758 12.218 15.3874 12.7765 15.0251 13.2576L21.4382 19.6848L19.5718 21.537ZM9.38704 13.675C10.5523 13.675 11.5394 13.2704 12.3484 12.4614C13.1575 11.6524 13.562 10.6652 13.562 9.50001C13.562 8.3348 13.1575 7.34766 12.3484 6.53861C11.5394 5.72956 10.5523 5.32504 9.38704 5.32504C8.22182 5.32504 7.23469 5.72956 6.42564 6.53861C5.61659 7.34766 5.21206 8.3348 5.21206 9.50001C5.21206 10.6652 5.61659 11.6524 6.42564 12.4614C7.23469 13.2705 8.22182 13.675 9.38704 13.675Z" fill="#FAF6F1"/>
</g>
</g>
</svg>
