<svg width="24" height="24" viewBox="0 0 24 24" fill="none" xmlns="http://www.w3.org/2000/svg">
<g id="shopping_bag">
<mask id="mask0_19_215" style="mask-type:alpha" maskUnits="userSpaceOnUse" x="0" y="0" width="24" height="24">
<rect id="Bounding box" width="24" height="24" fill="#D9D9D9"/>
</mask>
<g mask="url(#mask0_19_215)">
<path id="shopping_bag_2" d="M6.16956 22.4805C5.43114 22.4805 4.80486 22.2234 4.29073 21.7093C3.7766 21.1951 3.51953 20.5689 3.51953 19.8304V8.39569C3.51953 7.65727 3.7766 7.031 4.29073 6.51686C4.80486 6.00273 5.43114 5.74566 6.16956 5.74566H7.67496C7.70322 4.5703 8.13646 3.5721 8.97466 2.75109C9.81284 1.93007 10.8204 1.51956 11.9975 1.51956C13.1745 1.51956 14.183 1.93007 15.0228 2.75109C15.8627 3.5721 16.2967 4.5703 16.325 5.74566H17.8304C18.5688 5.74566 19.1951 6.00273 19.7092 6.51686C20.2234 7.031 20.4804 7.65727 20.4804 8.39569V19.8304C20.4804 20.5689 20.2234 21.1951 19.7092 21.7093C19.1951 22.2234 18.5688 22.4805 17.8304 22.4805H6.16956ZM6.16956 19.8304H17.8304V8.39569H16.325V10.0707C16.325 10.4388 16.1962 10.7516 15.9386 11.0093C15.681 11.2669 15.3681 11.3957 15 11.3957C14.6319 11.3957 14.319 11.2669 14.0614 11.0093C13.8038 10.7516 13.675 10.4388 13.675 10.0707V8.39569H10.325V10.0707C10.325 10.4388 10.1962 10.7516 9.93858 11.0093C9.68097 11.2669 9.3681 11.3957 8.99998 11.3957C8.63186 11.3957 8.319 11.2669 8.06138 11.0093C7.80376 10.7516 7.67496 10.4388 7.67496 10.0707V8.39569H6.16956V19.8304ZM10.3391 5.74566H13.6608C13.6326 5.30871 13.4598 4.9368 13.1426 4.62991C12.8254 4.32303 12.4441 4.16959 11.9986 4.16959C11.5532 4.16959 11.1723 4.32303 10.856 4.62991C10.5397 4.9368 10.3674 5.30871 10.3391 5.74566Z" fill="#FAF6F1"/>
</g>
</g>
</svg>
