<svg width="30" height="30" viewBox="0 0 30 30" fill="none" xmlns="http://www.w3.org/2000/svg">
<mask id="mask0_157_241" style="mask-type:alpha" maskUnits="userSpaceOnUse" x="0" y="0" width="30" height="30">
<rect width="30" height="30" fill="#D9D9D9"/>
</mask>
<g mask="url(#mask0_157_241)">
<path d="M11.8021 20.8723L14.9991 17.6753L18.1961 20.8723L20.2463 18.822L17.0493 15.625L20.2463 12.428L18.1961 10.3777L14.9991 13.5747L11.8021 10.3777L9.75178 12.428L12.9488 15.625L9.75178 18.822L11.8021 20.8723ZM8.55475 26.8506C7.63173 26.8506 6.84889 26.5292 6.20622 25.8866C5.56355 25.2439 5.24222 24.461 5.24222 23.538V7.69431H3.58594V4.38174H10.8428V2.72549H19.12V4.38174H26.4122V7.69431H24.7559V23.538C24.7559 24.461 24.4346 25.2439 23.7919 25.8866C23.1492 26.5292 22.3664 26.8506 21.4434 26.8506H8.55475ZM21.4434 7.69431H8.55475V23.538H21.4434V7.69431Z" fill="#D14949"/>
</g>
</svg>
