<svg width="28" height="28" viewBox="0 0 28 28" fill="none" xmlns="http://www.w3.org/2000/svg">
<mask id="mask0_157_289" style="mask-type:alpha" maskUnits="userSpaceOnUse" x="0" y="0" width="28" height="28">
<rect width="28" height="28" fill="#D9D9D9"/>
</mask>
<g mask="url(#mask0_157_289)">
<path d="M13.2125 26.0205C11.6358 25.8649 10.1612 25.4615 8.78864 24.8101C7.41611 24.1587 6.22536 23.3046 5.21636 22.2478C4.20735 21.1911 3.41139 19.9644 2.82849 18.5678C2.24556 17.1711 1.9541 15.6486 1.9541 14C1.9541 12.3515 2.26226 10.8115 2.87857 9.38026C3.49486 7.94899 4.33857 6.69863 5.40971 5.62919H2.77456V2.53747H10.8792V10.6421H7.78743V7.66074C6.93781 8.45034 6.26846 9.38704 5.7794 10.4709C5.29035 11.5547 5.04583 12.7311 5.04583 14C5.04583 16.3037 5.82847 18.2928 7.39374 19.9671C8.95902 21.6414 10.8986 22.6244 13.2125 22.9161V26.0205ZM12.3375 19.7129L7.16099 14.5402L9.15704 12.5442L12.3375 15.7246L18.8264 9.23568L20.8224 11.2444L12.3375 19.7129ZM17.1208 25.4625V17.358H20.2125V20.3393C21.0621 19.5412 21.7315 18.6024 22.2205 17.5228C22.7096 16.4432 22.9541 15.2689 22.9541 14C22.9541 11.6963 22.1715 9.70722 20.6062 8.03287C19.0409 6.35855 17.1013 5.37556 14.7874 5.08389V1.97951C17.9628 2.29315 20.633 3.58705 22.7981 5.86121C24.9633 8.13538 26.0458 10.8483 26.0458 14C26.0458 15.6485 25.7377 17.1884 25.1214 18.6197C24.5051 20.051 23.6614 21.3014 22.5902 22.3708H25.2254V25.4625L17.1208 25.4625Z" fill="#262632"/>
</g>
</svg>
